<svg width="58" height="58" viewBox="0 0 58 58" fill="none" xmlns="http://www.w3.org/2000/svg">
<path d="M30.8125 34.6641V19.9375C30.8125 19.4568 30.6215 18.9958 30.2816 18.6559C29.9417 18.316 29.4807 18.125 29 18.125C28.5193 18.125 28.0583 18.316 27.7184 18.6559C27.3785 18.9958 27.1875 19.4568 27.1875 19.9375V34.6641C25.4789 35.1052 23.9899 36.1544 22.9995 37.6148C22.0092 39.0753 21.5854 40.8468 21.8078 42.5974C22.0301 44.3479 22.8833 45.9573 24.2073 47.1238C25.5314 48.2903 27.2354 48.9338 29 48.9338C30.7646 48.9338 32.4686 48.2903 33.7927 47.1238C35.1167 45.9573 35.9699 44.3479 36.1922 42.5974C36.4146 40.8468 35.9908 39.0753 35.0005 37.6148C34.0101 36.1544 32.5211 35.1052 30.8125 34.6641ZM29 45.3125C28.283 45.3125 27.5822 45.0999 26.9861 44.7016C26.3899 44.3033 25.9253 43.7371 25.6509 43.0747C25.3766 42.4123 25.3048 41.6835 25.4447 40.9803C25.5845 40.2771 25.9298 39.6312 26.4367 39.1242C26.9437 38.6173 27.5896 38.272 28.2928 38.1322C28.996 37.9923 29.7248 38.0641 30.3872 38.3384C31.0496 38.6128 31.6158 39.0774 32.0141 39.6736C32.4124 40.2697 32.625 40.9705 32.625 41.6875C32.625 42.6489 32.2431 43.5709 31.5633 44.2508C30.8834 44.9306 29.9614 45.3125 29 45.3125ZM38.0625 30.3594V10.875C38.0625 8.47148 37.1077 6.16639 35.4082 4.46684C33.7086 2.7673 31.4035 1.8125 29 1.8125C26.5965 1.8125 24.2914 2.7673 22.5918 4.46684C20.8923 6.16639 19.9375 8.47148 19.9375 10.875V30.3594C17.5924 32.237 15.8884 34.7966 15.0609 37.6845C14.2334 40.5725 14.3234 43.6461 15.3183 46.4807C16.3133 49.3153 18.1641 51.7709 20.615 53.5081C23.0659 55.2453 25.9959 56.1784 29 56.1784C32.0041 56.1784 34.9341 55.2453 37.385 53.5081C39.8359 51.7709 41.6867 49.3153 42.6817 46.4807C43.6766 43.6461 43.7666 40.5725 42.9391 37.6845C42.1116 34.7966 40.4076 32.237 38.0625 30.3594ZM29 52.5625C26.6844 52.5627 24.4292 51.8237 22.5627 50.4533C20.6962 49.0828 19.3159 47.1523 18.6228 44.9429C17.9296 42.7335 17.9598 40.3605 18.7089 38.1694C19.458 35.9783 20.8869 34.0835 22.7877 32.7609C23.0282 32.593 23.2243 32.3692 23.3593 32.1087C23.4943 31.8483 23.564 31.559 23.5625 31.2656V10.875C23.5625 9.43289 24.1354 8.04984 25.1551 7.03011C26.1748 6.01038 27.5579 5.4375 29 5.4375C30.4421 5.4375 31.8252 6.01038 32.8449 7.03011C33.8646 8.04984 34.4375 9.43289 34.4375 10.875V31.2656C34.4375 31.5574 34.5079 31.8449 34.6428 32.1037C34.7777 32.3625 34.9731 32.5848 35.2123 32.7519C37.117 34.0731 38.5497 35.9684 39.3014 38.1612C40.053 40.354 40.0843 42.7297 39.3907 44.9415C38.6971 47.1534 37.3149 49.0858 35.4457 50.4567C33.5764 51.8277 31.3181 52.5655 29 52.5625Z" fill="black"/>
</svg>
